<svg width="55" height="52" viewBox="0 0 55 52" fill="none" xmlns="http://www.w3.org/2000/svg">
<ellipse cx="27.3196" cy="26" rx="27.3196" ry="25.7143" fill="#5A61FF"/>
<path d="M24.7646 14.9728L26.4566 13.5839C27.173 12.9958 28.3316 12.9958 29.0404 13.5839L43.8572 25.74C44.5737 26.3281 44.5737 27.279 43.8572 27.8609L29.0404 40.0232C28.3239 40.6113 27.1654 40.6113 26.4566 40.0232L24.7646 38.6343C24.0405 38.0399 24.0557 37.0702 24.795 36.4883L33.9793 29.3061H12.0742C11.0605 29.3061 10.245 28.6366 10.245 27.8046V25.8025C10.245 24.9704 11.0605 24.301 12.0742 24.301H33.9793L24.795 17.1187C24.0481 16.5369 24.0329 15.5672 24.7646 14.9728Z" fill="white"/>
<path d="M24.7646 14.9728L26.4566 13.5839C27.173 12.9958 28.3316 12.9958 29.0404 13.5839L43.8572 25.74C44.5737 26.3281 44.5737 27.279 43.8572 27.8609L29.0404 40.0232C28.3239 40.6113 27.1654 40.6113 26.4566 40.0232L24.7646 38.6343C24.0405 38.0399 24.0557 37.0702 24.795 36.4883L33.9793 29.3061H12.0742C11.0605 29.3061 10.245 28.6366 10.245 27.8046V25.8025C10.245 24.9704 11.0605 24.301 12.0742 24.301H33.9793L24.795 17.1187C24.0481 16.5369 24.0329 15.5672 24.7646 14.9728Z" stroke="black"/>
</svg>
